<svg width="1787" height="499" viewBox="0 0 1787 499" fill="none" xmlns="http://www.w3.org/2000/svg">
<rect x="172.625" y="9.19239" width="231.129" height="231.129" rx="39.5" transform="rotate(45 172.625 9.19239)" stroke="#FCA62B" stroke-width="13"/>
<rect x="172.85" y="162.942" width="231.129" height="231.129" rx="39.5" transform="rotate(45 172.85 162.942)" stroke="#84D5DE" stroke-width="13"/>
<path d="M548.829 250.012C548.829 262.454 546.583 273.208 542.089 282.271C537.596 291.334 531.432 298.324 523.598 303.239C515.764 308.155 506.815 310.613 496.754 310.613C486.692 310.613 477.744 308.155 469.909 303.239C462.075 298.324 455.911 291.334 451.418 282.271C446.924 273.208 444.678 262.454 444.678 250.012C444.678 237.569 446.924 226.816 451.418 217.752C455.911 208.689 462.075 201.699 469.909 196.784C477.744 191.868 486.692 189.41 496.754 189.41C506.815 189.41 515.764 191.868 523.598 196.784C531.432 201.699 537.596 208.689 542.089 217.752C546.583 226.816 548.829 237.569 548.829 250.012ZM535.004 250.012C535.004 239.796 533.295 231.174 529.877 224.146C526.497 217.119 521.908 211.8 516.109 208.19C510.349 204.58 503.897 202.775 496.754 202.775C489.61 202.775 483.139 204.58 477.34 208.19C471.58 211.8 466.991 217.119 463.573 224.146C460.193 231.174 458.503 239.796 458.503 250.012C458.503 260.227 460.193 268.849 463.573 275.877C466.991 282.905 471.58 288.223 477.34 291.833C483.139 295.443 489.61 297.248 496.754 297.248C503.897 297.248 510.349 295.443 516.109 291.833C521.908 288.223 526.497 282.905 529.877 275.877C533.295 268.849 535.004 260.227 535.004 250.012ZM618.475 309V191.023H658.338C667.594 191.023 675.159 192.694 681.035 196.035C686.949 199.338 691.327 203.812 694.169 209.457C697.011 215.102 698.432 221.401 698.432 228.352C698.432 235.303 697.011 241.62 694.169 247.304C691.366 252.988 687.026 257.52 681.15 260.899C675.274 264.24 667.747 265.911 658.569 265.911H629.996V253.237H658.108C664.444 253.237 669.533 252.143 673.373 249.954C677.214 247.765 679.998 244.808 681.726 241.083C683.493 237.319 684.376 233.075 684.376 228.352C684.376 223.628 683.493 219.404 681.726 215.678C679.998 211.953 677.194 209.035 673.316 206.922C669.437 204.772 664.291 203.696 657.877 203.696H632.761V309H618.475ZM767.069 309V191.023H838.27V203.696H781.356V243.56H834.583V256.233H781.356V296.327H839.192V309H767.069ZM1003.2 191.023V309H989.371L925.082 216.37H923.93V309H909.644V191.023H923.469L987.988 283.884H989.14V191.023H1003.2ZM1141.93 220.517C1141.23 214.68 1138.43 210.148 1133.51 206.922C1128.6 203.696 1122.57 202.083 1115.43 202.083C1110.2 202.083 1105.63 202.928 1101.72 204.618C1097.84 206.308 1094.8 208.631 1092.61 211.588C1090.46 214.546 1089.39 217.906 1089.39 221.669C1089.39 224.819 1090.14 227.526 1091.64 229.792C1093.17 232.019 1095.13 233.882 1097.51 235.38C1099.89 236.839 1102.39 238.049 1105 239.009C1107.61 239.931 1110.01 240.679 1112.2 241.255L1124.18 244.481C1127.26 245.288 1130.67 246.402 1134.44 247.823C1138.24 249.243 1141.87 251.183 1145.32 253.641C1148.82 256.06 1151.7 259.171 1153.97 262.973C1156.23 266.775 1157.36 271.441 1157.36 276.971C1157.36 283.346 1155.69 289.107 1152.35 294.253C1149.05 299.399 1144.21 303.489 1137.84 306.523C1131.5 309.557 1123.8 311.074 1114.74 311.074C1106.29 311.074 1098.97 309.71 1092.79 306.984C1086.64 304.257 1081.8 300.455 1078.27 295.578C1074.78 290.701 1072.8 285.036 1072.34 278.584H1087.08C1087.47 283.039 1088.97 286.726 1091.58 289.644C1094.23 292.525 1097.57 294.675 1101.6 296.096C1105.67 297.479 1110.05 298.17 1114.74 298.17C1120.19 298.17 1125.09 297.287 1129.42 295.52C1133.76 293.715 1137.2 291.219 1139.74 288.031C1142.27 284.806 1143.54 281.042 1143.54 276.741C1143.54 272.823 1142.44 269.636 1140.25 267.178C1138.07 264.72 1135.19 262.723 1131.61 261.187C1128.04 259.651 1124.18 258.307 1120.04 257.155L1105.52 253.007C1096.3 250.357 1089 246.574 1083.63 241.659C1078.25 236.743 1075.56 230.31 1075.56 222.361C1075.56 215.755 1077.35 209.995 1080.92 205.079C1084.53 200.125 1089.37 196.284 1095.44 193.558C1101.54 190.793 1108.36 189.41 1115.89 189.41C1123.49 189.41 1130.25 190.773 1136.16 193.5C1142.08 196.188 1146.76 199.875 1150.22 204.56C1153.72 209.246 1155.56 214.565 1155.75 220.517H1141.93ZM1220.02 203.696V191.023H1308.51V203.696H1271.41V309H1257.12V203.696H1220.02ZM1381.02 309H1366.04L1409.36 191.023H1424.11L1467.43 309H1452.45L1417.2 209.687H1416.27L1381.02 309ZM1386.55 262.915H1446.92V275.589H1386.55V262.915ZM1626.36 227.891H1612.08C1611.23 223.782 1609.75 220.172 1607.64 217.061C1605.57 213.95 1603.03 211.339 1600.04 209.227C1597.08 207.076 1593.8 205.463 1590.19 204.388C1586.58 203.312 1582.81 202.775 1578.9 202.775C1571.75 202.775 1565.28 204.58 1559.48 208.19C1553.72 211.8 1549.13 217.119 1545.71 224.146C1542.33 231.174 1540.64 239.796 1540.64 250.012C1540.64 260.227 1542.33 268.849 1545.71 275.877C1549.13 282.905 1553.72 288.223 1559.48 291.833C1565.28 295.443 1571.75 297.248 1578.9 297.248C1582.81 297.248 1586.58 296.711 1590.19 295.635C1593.8 294.56 1597.08 292.966 1600.04 290.854C1603.03 288.704 1605.57 286.073 1607.64 282.962C1609.75 279.813 1611.23 276.203 1612.08 272.132H1626.36C1625.29 278.162 1623.33 283.557 1620.49 288.319C1617.64 293.082 1614.11 297.133 1609.89 300.474C1605.66 303.777 1600.92 306.293 1595.66 308.021C1590.44 309.749 1584.85 310.613 1578.9 310.613C1568.83 310.613 1559.89 308.155 1552.05 303.239C1544.22 298.324 1538.05 291.334 1533.56 282.271C1529.07 273.208 1526.82 262.454 1526.82 250.012C1526.82 237.569 1529.07 226.816 1533.56 217.752C1538.05 208.689 1544.22 201.699 1552.05 196.784C1559.89 191.868 1568.83 189.41 1578.9 189.41C1584.85 189.41 1590.44 190.274 1595.66 192.002C1600.92 193.731 1605.66 196.265 1609.89 199.606C1614.11 202.909 1617.64 206.942 1620.49 211.704C1623.33 216.427 1625.29 221.823 1626.36 227.891ZM1695.07 309V191.023H1709.36V249.551H1710.74L1763.74 191.023H1782.4L1732.86 244.251L1782.4 309H1765.12L1724.11 254.159L1709.36 270.75V309H1695.07Z" fill="white"/>
</svg>
