<?xml version="1.0" encoding="UTF-8"?>
<svg id="Layer_10" data-name="Layer 10" xmlns="http://www.w3.org/2000/svg" xmlns:xlink="http://www.w3.org/1999/xlink" viewBox="0 0 750 500">
  <defs>
    <style>
      .cls-1 {
        fill: #fafafa;
      }

      .cls-2 {
        opacity: .5;
      }

      .cls-3 {
        filter: url(#drop-shadow-4);
      }

      .cls-4, .cls-5 {
        fill: #eac94d;
      }

      .cls-6 {
        filter: url(#drop-shadow-3);
      }

      .cls-7 {
        filter: url(#drop-shadow-1);
      }

      .cls-8 {
        opacity: .3;
      }

      .cls-9 {
        filter: url(#drop-shadow-2);
      }

      .cls-5 {
        stroke: #000;
        stroke-miterlimit: 10;
      }

      .cls-10 {
        fill: #263238;
      }
    </style>
    <filter id="drop-shadow-1" filterUnits="userSpaceOnUse">
      <feOffset dx="0" dy="4"/>
      <feGaussianBlur result="blur" stdDeviation="4"/>
      <feFlood flood-color="#000" flood-opacity=".25"/>
      <feComposite in2="blur" operator="in"/>
      <feComposite in="SourceGraphic"/>
    </filter>
    <filter id="drop-shadow-2" filterUnits="userSpaceOnUse">
      <feOffset dx="0" dy="4"/>
      <feGaussianBlur result="blur-2" stdDeviation="4"/>
      <feFlood flood-color="#000" flood-opacity=".25"/>
      <feComposite in2="blur-2" operator="in"/>
      <feComposite in="SourceGraphic"/>
    </filter>
    <filter id="drop-shadow-3" filterUnits="userSpaceOnUse">
      <feOffset dx="0" dy="4"/>
      <feGaussianBlur result="blur-3" stdDeviation="4"/>
      <feFlood flood-color="#000" flood-opacity=".25"/>
      <feComposite in2="blur-3" operator="in"/>
      <feComposite in="SourceGraphic"/>
    </filter>
    <filter id="drop-shadow-4" filterUnits="userSpaceOnUse">
      <feOffset dx="0" dy="4"/>
      <feGaussianBlur result="blur-4" stdDeviation="4"/>
      <feFlood flood-color="#000" flood-opacity=".25"/>
      <feComposite in2="blur-4" operator="in"/>
      <feComposite in="SourceGraphic"/>
    </filter>
  </defs>
  <g>
    <path class="cls-10" d="M385.75,289.9c.16,.02,.24,.67,.16,1.47-.08,.79-.28,1.42-.44,1.41-.17-.01-.24-.67-.16-1.47,.08-.79,.28-1.42,.44-1.41Z"/>
    <path class="cls-10" d="M387.29,278.66c.16,.03,.11,1.3-.13,2.85-.24,1.55-.56,2.78-.72,2.76-.16-.02-.11-1.3,.13-2.85,.24-1.55,.56-2.79,.72-2.76Z"/>
    <path class="cls-10" d="M389.56,267.55c.16,.04,.02,1.31-.32,2.83-.34,1.53-.74,2.74-.91,2.7-.16-.03-.02-1.3,.32-2.83,.34-1.53,.75-2.74,.91-2.7Z"/>
    <path class="cls-10" d="M392.63,256.63c.16,.05-.08,1.31-.53,2.8-.45,1.5-.95,2.67-1.11,2.63-.16-.04,.08-1.3,.53-2.8,.45-1.5,.95-2.68,1.11-2.63Z"/>
    <path class="cls-10" d="M396.59,246c.15,.07-.19,1.3-.77,2.75-.58,1.45-1.17,2.58-1.33,2.52-.16-.06,.19-1.29,.77-2.75,.58-1.46,1.17-2.59,1.33-2.52Z"/>
    <path class="cls-10" d="M401.5,235.79c.15,.08-.31,1.27-1.02,2.66-.71,1.39-1.41,2.46-1.56,2.39-.15-.07,.31-1.26,1.02-2.66,.71-1.4,1.41-2.47,1.56-2.39Z"/>
    <path class="cls-10" d="M407.43,226.13c.14,.1-.46,1.22-1.33,2.52-.83,1.32-1.63,2.32-1.77,2.24-.14-.09,.42-1.23,1.26-2.56,.87-1.31,1.7-2.29,1.83-2.19Z"/>
    <path class="cls-10" d="M414.42,217.2c.12,.11-.58,1.17-1.58,2.37-1,1.2-1.91,2.09-2.04,1.99-.13-.1,.58-1.16,1.58-2.37,1-1.21,1.92-2.1,2.04-1.99Z"/>
    <path class="cls-10" d="M422.42,209.16c.11,.12-.72,1.1-1.85,2.17-1.13,1.07-2.15,1.85-2.27,1.73-.12-.12,.71-1.09,1.85-2.17,1.14-1.08,2.16-1.86,2.27-1.73Z"/>
    <path class="cls-10" d="M431.34,202.17c.09,.14-.85,1-2.11,1.92-1.26,.92-2.36,1.56-2.47,1.43-.1-.13,.84-.99,2.11-1.92,1.27-.93,2.37-1.57,2.47-1.43Z"/>
    <path class="cls-10" d="M441.12,196.42c.07,.15-.98,.87-2.35,1.62-1.37,.74-2.55,1.23-2.64,1.09-.09-.14,.97-.87,2.35-1.62,1.38-.75,2.56-1.24,2.64-1.09Z"/>
    <path class="cls-10" d="M451.62,192.16c.05,.16-1.1,.72-2.56,1.25-1.47,.53-2.7,.84-2.77,.69-.06-.15,1.08-.71,2.56-1.25,1.48-.54,2.72-.84,2.77-.69Z"/>
    <path class="cls-10" d="M462.66,189.59c.02,.17-1.21,.5-2.74,.77-1.52,.32-2.79,.45-2.83,.29-.04-.16,1.18-.56,2.72-.88,1.55-.27,2.83-.34,2.85-.18Z"/>
    <path class="cls-10" d="M473.97,188.96c0,.17-1.27,.31-2.83,.33-1.56,.02-2.83-.1-2.84-.27-.01-.17,1.26-.31,2.83-.33,1.57-.02,2.85,.1,2.84,.27Z"/>
    <path class="cls-10" d="M485.23,190.29c-.03,.16-1.31,.09-2.85-.16-1.54-.25-2.77-.58-2.75-.75,.02-.16,1.29-.1,2.85,.16,1.55,.25,2.79,.59,2.75,.75Z"/>
    <path class="cls-10" d="M496.08,193.53c-.06,.15-1.31-.14-2.78-.65-1.47-.51-2.63-1.05-2.58-1.21,.05-.16,1.29,.13,2.78,.65,1.49,.52,2.64,1.06,2.58,1.21Z"/>
    <path class="cls-10" d="M506.18,198.68c-.09,.14-1.26-.37-2.61-1.14-1.35-.77-2.39-1.52-2.31-1.67s1.24,.36,2.61,1.14c1.37,.78,2.4,1.53,2.31,1.67Z"/>
    <path class="cls-10" d="M515.07,205.69c-.12,.12-1.16-.62-2.33-1.64-1.17-1.03-2.04-1.96-1.93-2.1,.1-.13,1.14,.6,2.33,1.64,1.18,1.04,2.05,1.98,1.93,2.1Z"/>
  </g>
  <g>
    <path class="cls-10" d="M522.73,213.59c-.12,.12-1.11-.72-2.22-1.87-1.11-1.15-1.91-2.18-1.78-2.29,.12-.11,1.12,.73,2.22,1.87,1.1,1.14,1.9,2.17,1.78,2.29Z"/>
    <path class="cls-10" d="M531.52,221.05c-.1,.14-1.19-.56-2.45-1.55-1.26-.99-2.19-1.89-2.08-2.02,.11-.13,1.21,.57,2.45,1.55,1.25,.98,2.18,1.88,2.08,2.02Z"/>
    <path class="cls-10" d="M541.48,226.85c-.07,.15-1.28-.32-2.7-1.06-1.42-.74-2.51-1.45-2.42-1.6s1.29,.33,2.7,1.06c1.4,.73,2.49,1.44,2.42,1.6Z"/>
    <path class="cls-10" d="M552.35,230.68c-.04,.16-1.32-.08-2.85-.55-1.53-.46-2.73-.97-2.67-1.12,.06-.16,1.33,.09,2.85,.55,1.52,.46,2.71,.96,2.67,1.12Z"/>
    <path class="cls-10" d="M563.68,232.79c-.01,.17-1.32,.13-2.91-.08-1.58-.25-2.83-.62-2.8-.78,.03-.17,1.32-.06,2.89,.19,1.57,.2,2.83,.5,2.81,.67Z"/>
    <path class="cls-10" d="M575.2,232.7c.02,.16-1.26,.38-2.86,.48-1.6,.1-2.9,.04-2.9-.12,0-.17,1.28-.38,2.86-.48,1.58-.1,2.88-.04,2.9,.12Z"/>
    <path class="cls-10" d="M586.43,230.16c.06,.15-1.13,.72-2.67,1.15-1.54,.44-2.84,.58-2.88,.42-.04-.16,1.19-.57,2.71-1,1.52-.43,2.78-.73,2.83-.58Z"/>
    <path class="cls-10" d="M596.79,225.13c.09,.14-.92,.97-2.32,1.75-1.4,.79-2.64,1.22-2.7,1.07-.07-.15,1.03-.82,2.41-1.6,1.38-.77,2.52-1.37,2.62-1.23Z"/>
    <path class="cls-10" d="M605.5,217.62c.13,.11-.62,1.19-1.76,2.32-1.14,1.13-2.23,1.87-2.33,1.74-.11-.13,.79-1.06,1.91-2.17,1.12-1.11,2.05-2,2.18-1.89Z"/>
    <path class="cls-10" d="M611.56,207.86c.15,.06-.2,1.33-.93,2.76-.73,1.44-1.55,2.46-1.69,2.37-.14-.09,.44-1.24,1.15-2.65,.72-1.4,1.31-2.55,1.46-2.49Z"/>
    <path class="cls-10" d="M614.12,196.66c.16,0,.22,1.32-.01,2.91-.23,1.59-.67,2.83-.82,2.79-.16-.04,0-1.32,.23-2.88,.23-1.56,.44-2.83,.61-2.82Z"/>
    <path class="cls-10" d="M613.18,185.2c.16-.04,.61,1.19,.86,2.78,.25,1.59,.21,2.9,.05,2.91-.17,.01-.39-1.26-.64-2.82-.25-1.56-.43-2.83-.27-2.88Z"/>
    <path class="cls-10" d="M608.68,174.64c.13-.09,.98,.92,1.73,2.34,.76,1.42,1.12,2.68,.97,2.75-.16,.06-.76-1.07-1.5-2.46-.73-1.39-1.34-2.53-1.2-2.62Z"/>
    <path class="cls-10" d="M600.62,166.49c.09-.14,1.27,.45,2.52,1.48,1.25,1.02,2.06,2.07,1.94,2.18-.12,.12-1.1-.72-2.32-1.71-1.21-1-2.22-1.8-2.13-1.94Z"/>
    <path class="cls-10" d="M589.88,162.54c.02-.16,1.34-.16,2.91,.23,1.57,.38,2.75,.98,2.69,1.13-.06,.16-1.3-.18-2.83-.55-1.53-.38-2.78-.64-2.77-.81Z"/>
    <path class="cls-10" d="M578.6,164.14c-.07-.14,1.05-.86,2.62-1.3,1.56-.45,2.89-.46,2.91-.3,.02,.17-1.24,.44-2.74,.87-1.51,.43-2.71,.87-2.78,.72Z"/>
    <path class="cls-10" d="M570.6,172.14c-.15-.06,.27-1.33,1.21-2.66,.93-1.34,1.98-2.16,2.09-2.04,.12,.12-.71,1.1-1.6,2.39-.9,1.28-1.54,2.39-1.7,2.32Z"/>
    <path class="cls-10" d="M568.66,183.38c-.16,.02-.44-1.27-.38-2.9,.05-1.62,.43-2.89,.59-2.86,.17,.03,.06,1.31,0,2.88-.06,1.57-.05,2.86-.22,2.87Z"/>
    <path class="cls-10" d="M572.6,194.11c-.13,.09-.99-.91-1.73-2.35-.75-1.44-1.06-2.72-.91-2.77,.16-.06,.71,1.1,1.44,2.5,.72,1.4,1.34,2.53,1.2,2.62Z"/>
    <path class="cls-10" d="M580.67,202.27c-.09,.13-1.24-.49-2.48-1.53-1.24-1.03-2.05-2.07-1.93-2.18,.12-.12,1.11,.71,2.32,1.72,1.21,1.02,2.19,1.85,2.09,1.99Z"/>
    <path class="cls-10" d="M590.95,207.42c-.05,.16-1.33-.11-2.82-.73-1.49-.61-2.59-1.32-2.51-1.47,.08-.15,1.28,.31,2.74,.91,1.46,.6,2.64,1.12,2.59,1.28Z"/>
    <path class="cls-10" d="M602.25,209.55c0,.16-1.31,.24-2.91,.04-1.59-.19-2.85-.58-2.81-.74,.03-.17,1.32-.05,2.88,.14,1.57,.19,2.84,.38,2.83,.55Z"/>
    <path class="cls-10" d="M613.74,208.86c.03,.16-1.24,.45-2.83,.63-1.59,.19-2.89,.2-2.9,.04,0-.17,1.26-.45,2.83-.63,1.57-.18,2.87-.2,2.9-.04Z"/>
    <path class="cls-10" d="M624.84,205.79c.06,.15-1.12,.69-2.65,1.19-1.52,.5-2.79,.78-2.83,.62-.04-.16,1.14-.69,2.65-1.19,1.5-.49,2.77-.77,2.83-.62Z"/>
    <path class="cls-10" d="M635.22,200.76c.09,.14-.99,.87-2.4,1.63-1.41,.76-2.61,1.25-2.68,1.1s1-.88,2.4-1.63c1.39-.75,2.6-1.25,2.68-1.1Z"/>
    <path class="cls-10" d="M644.61,194.08c.11,.13-.83,1.02-2.09,2.01-1.26,.98-2.37,1.67-2.46,1.53-.1-.14,.84-1.03,2.09-2.01,1.25-.97,2.35-1.66,2.46-1.53Z"/>
    <path class="cls-10" d="M652.78,185.94c.13,.11-.65,1.15-1.73,2.33-1.07,1.19-2.07,2.03-2.19,1.9-.11-.11,.69-1.13,1.75-2.31,1.07-1.17,2.05-2.03,2.17-1.92Z"/>
    <path class="cls-10" d="M659.78,176.78c.14,.09-.51,1.22-1.44,2.52-.93,1.3-1.8,2.27-1.93,2.17-.13-.1,.51-1.23,1.44-2.52,.93-1.29,1.79-2.26,1.93-2.17Z"/>
    <path class="cls-10" d="M665.77,166.92c.15,.08-.38,1.27-1.18,2.65-.8,1.39-1.56,2.44-1.7,2.35-.14-.09,.39-1.27,1.18-2.65,.79-1.38,1.55-2.43,1.7-2.35Z"/>
    <path class="cls-10" d="M670.9,156.59c.15,.07-.28,1.29-.97,2.73-.69,1.44-1.36,2.55-1.51,2.48-.15-.07,.28-1.3,.97-2.73,.68-1.44,1.36-2.54,1.51-2.48Z"/>
    <path class="cls-10" d="M675.41,145.98c.15,.06-.21,1.31-.82,2.78-.6,1.48-1.22,2.62-1.37,2.56-.15-.07,.21-1.31,.82-2.78,.6-1.47,1.22-2.62,1.37-2.55Z"/>
    <path class="cls-10" d="M679.5,135.19c.16,.06-.17,1.31-.72,2.81-.55,1.49-1.13,2.66-1.28,2.6s.17-1.32,.72-2.81c.55-1.49,1.13-2.66,1.28-2.6Z"/>
    <path class="cls-10" d="M681.9,128.51c.16,.06,.18,.38,.06,.73-.12,.34-.35,.58-.51,.52-.16-.06-.18-.38-.06-.73,.12-.34,.35-.58,.51-.52Z"/>
  </g>
  <g class="cls-7">
    <g>
      <g>
        <rect class="cls-4" x="657.64" y="106.33" width="77.88" height="52.17" transform="translate(-10.22 75.98) rotate(-6.2)"/>
        <path d="M732.04,102.82l5.52,50.87-76.43,8.3-5.52-50.87,76.43-8.3m.89-1.1l-78.42,8.52,5.74,52.86,78.42-8.52-5.74-52.86h0Z"/>
      </g>
      <path class="cls-10" d="M660.22,163.13v-.03s-5.75-52.89-5.75-52.89h.03s78.45-8.52,78.45-8.52v.03s5.75,52.89,5.75,52.89h-.03s-78.45,8.52-78.45,8.52Zm-5.68-52.87l5.73,52.8,78.37-8.51-5.73-52.8-78.37,8.51Z"/>
    </g>
    <path class="cls-10" d="M733.24,102.33s-.21,.29-.65,.78c-.5,.54-1.15,1.26-1.98,2.15-1.79,1.9-4.3,4.56-7.37,7.82-6.32,6.61-14.98,15.66-24.56,25.69l-.2,.21-.25-.16c-.19-.12-.39-.25-.6-.38-11.83-7.56-22.53-14.39-30.35-19.39-3.82-2.48-6.93-4.5-9.15-5.95-1.03-.68-1.85-1.23-2.47-1.65-.56-.38-.85-.59-.83-.62,.01-.02,.33,.15,.91,.49,.64,.39,1.49,.9,2.54,1.53,2.26,1.4,5.41,3.36,9.28,5.75,7.85,4.95,18.6,11.73,30.47,19.22,.21,.13,.41,.26,.6,.38l-.45,.05c9.65-9.97,18.35-18.97,24.72-25.54,3.14-3.2,5.7-5.8,7.53-7.67,.86-.85,1.55-1.54,2.07-2.06,.48-.46,.74-.7,.76-.68Z"/>
    <path class="cls-10" d="M660.56,163.71c-.16-.11,4.95-8,11.41-17.61,6.47-9.62,11.84-17.32,12.01-17.21,.16,.11-4.95,7.99-11.41,17.61-6.47,9.62-11.84,17.32-12.01,17.21Z"/>
    <path class="cls-10" d="M709.98,125.39c.14-.14,6.75,6.42,14.76,14.65,8.01,8.23,14.39,15.01,14.25,15.15s-6.75-6.42-14.76-14.65c-8.01-8.23-14.39-15.01-14.25-15.15Z"/>
  </g>
  <g>
    <path class="cls-10" d="M358.89,270.89c.16-.03,.4,.59,.54,1.37,.13,.79,.11,1.45-.06,1.47s-.4-.59-.54-1.37c-.13-.79-.11-1.45,.06-1.47Z"/>
    <path class="cls-10" d="M357.04,259.63c.16-.03,.5,1.21,.75,2.77,.25,1.55,.32,2.84,.16,2.86-.16,.03-.5-1.21-.75-2.77-.25-1.56-.32-2.84-.16-2.86Z"/>
    <path class="cls-10" d="M355.39,248.34c.16-.02,.47,1.22,.69,2.78,.22,1.56,.26,2.84,.1,2.87s-.47-1.22-.69-2.78c-.22-1.56-.26-2.84-.1-2.87Z"/>
    <path class="cls-10" d="M353.3,225.63c.17,0,.37,1.26,.46,2.83,.09,1.57,.03,2.85-.14,2.86-.17,.01-.37-1.25-.46-2.83-.09-1.57-.03-2.86,.14-2.86Z"/>
    <path class="cls-10" d="M353.18,214.23c.17,0,.29,1.28,.28,2.86,0,1.57-.15,2.85-.32,2.85-.17,0-.29-1.28-.28-2.86,0-1.58,.15-2.86,.32-2.85Z"/>
    <path class="cls-10" d="M353.9,202.85c.16,.02,.19,1.3,.06,2.87-.13,1.57-.37,2.83-.54,2.82-.17,0-.19-1.29-.06-2.87,.13-1.57,.37-2.83,.54-2.82Z"/>
    <path class="cls-10" d="M355.62,191.57c.16,.03,.07,1.31-.2,2.86-.27,1.55-.63,2.78-.79,2.76-.16-.02-.07-1.3,.2-2.86,.27-1.56,.63-2.79,.79-2.76Z"/>
    <path class="cls-10" d="M358.52,180.55c.16,.05-.08,1.32-.52,2.82-.45,1.5-.94,2.69-1.1,2.65-.16-.04,.07-1.3,.53-2.82,.45-1.52,.94-2.7,1.1-2.65Z"/>
    <path class="cls-10" d="M362.79,169.98c.15,.07-.24,1.3-.87,2.73-.63,1.44-1.27,2.55-1.42,2.49-.15-.06,.24-1.28,.87-2.73,.64-1.45,1.27-2.56,1.42-2.49Z"/>
    <path class="cls-10" d="M368.35,160.03c.14,.09-.4,1.25-1.21,2.6-.81,1.34-1.58,2.37-1.73,2.29-.15-.08,.4-1.24,1.21-2.6,.82-1.35,1.59-2.38,1.73-2.29Z"/>
    <path class="cls-10" d="M375.19,150.91c.12,.11-.57,1.19-1.56,2.41-.98,1.22-1.89,2.13-2.02,2.03-.13-.1,.56-1.18,1.56-2.41,.99-1.23,1.9-2.14,2.02-2.03Z"/>
    <path class="cls-10" d="M383.3,142.89c.11,.13-.75,1.09-1.9,2.15-1.16,1.06-2.19,1.82-2.31,1.7s.73-1.08,1.9-2.15c1.17-1.07,2.2-1.83,2.31-1.7Z"/>
    <path class="cls-10" d="M392.62,136.34c.08,.14-.92,.95-2.24,1.79-1.32,.84-2.47,1.42-2.57,1.28-.1-.13,.91-.94,2.24-1.79,1.33-.85,2.48-1.43,2.57-1.28Z"/>
    <path class="cls-10" d="M403.01,131.66c.05,.16-1.09,.75-2.55,1.32-1.46,.57-2.7,.91-2.77,.76-.07-.15,1.07-.74,2.55-1.32,1.48-.58,2.71-.92,2.76-.76Z"/>
    <path class="cls-10" d="M411.34,129.61c.03,.16-.58,.42-1.36,.56-.78,.15-1.43,.14-1.47-.03-.04-.16,.57-.41,1.36-.56,.79-.15,1.44-.14,1.47,.03Z"/>
  </g>
  <g class="cls-9">
    <g>
      <g>
        <rect class="cls-4" x="351.14" y="86.33" width="56.81" height="84.77" transform="translate(122.6 436.29) rotate(-68.86)"/>
        <path d="M350.54,87.58l78.13,30.21-20.13,52.06-78.13-30.21,20.13-52.06m-.57-1.29l-20.85,53.92,80,30.93,20.85-53.92-80-30.93h0Z"/>
      </g>
      <path class="cls-10" d="M409.13,171.18h-.03s-80.02-30.96-80.02-30.96v-.03s20.87-53.95,20.87-53.95h.03s80.02,30.96,80.02,30.96v.03s-20.87,53.95-20.87,53.95Zm-79.98-30.99l79.94,30.91,20.83-53.87-79.94-30.91-20.83,53.87Z"/>
    </g>
    <path class="cls-10" d="M429.97,117.97s-.34,.17-1.02,.43c-.75,.28-1.74,.64-2.98,1.09-2.68,.94-6.43,2.26-11.02,3.88-9.41,3.23-22.29,7.65-36.55,12.55l-.3,.1-.16-.28c-.12-.21-.26-.44-.39-.67-7.65-13.2-14.57-25.15-19.63-33.89-2.45-4.3-4.44-7.8-5.87-10.31-.65-1.17-1.17-2.11-1.56-2.82-.35-.65-.52-1-.5-1.01,.02-.01,.24,.31,.63,.93,.43,.69,.99,1.61,1.69,2.75,1.48,2.48,3.55,5.94,6.09,10.19,5.11,8.71,12.1,20.61,19.83,33.77,.13,.23,.27,.46,.39,.67l-.46-.17c14.29-4.81,27.2-9.15,36.62-12.33,4.63-1.52,8.4-2.76,11.1-3.64,1.26-.4,2.27-.71,3.03-.95,.69-.21,1.06-.31,1.07-.28Z"/>
    <path class="cls-10" d="M329.12,140.96c-.1-.19,8.77-5.25,19.82-11.31,11.05-6.06,20.09-10.82,20.19-10.63,.1,.19-8.77,5.25-19.82,11.31-11.05,6.06-20.09,10.82-20.19,10.63Z"/>
    <path class="cls-10" d="M395.99,128.63c.21-.06,3.31,9.57,6.94,21.52,3.63,11.95,6.4,21.69,6.19,21.75-.21,.06-3.31-9.57-6.94-21.52-3.63-11.95-6.4-21.68-6.19-21.75Z"/>
  </g>
  <g>
    <path class="cls-10" d="M325.29,283.51c.17,.01,.25,.67,.18,1.46-.06,.8-.25,1.43-.42,1.41-.17-.02-.25-.67-.18-1.46,.06-.79,.25-1.43,.42-1.41Z"/>
    <path class="cls-10" d="M325.58,271.78c.17,0,.3,1.31,.29,2.94,0,1.63-.14,2.94-.31,2.93-.17,0-.3-1.32-.29-2.94,0-1.62,.14-2.93,.31-2.93Z"/>
    <path class="cls-10" d="M324.78,260.07c.16-.02,.42,1.28,.57,2.89,.15,1.62,.14,2.94-.03,2.95-.17,.01-.42-1.29-.57-2.89-.15-1.61-.14-2.93,.03-2.95Z"/>
    <path class="cls-10" d="M322.83,248.5c.16-.04,.55,1.23,.86,2.82,.31,1.6,.43,2.91,.27,2.94-.16,.03-.55-1.24-.86-2.82-.31-1.59-.43-2.9-.27-2.94Z"/>
    <path class="cls-10" d="M319.64,237.21c.16-.05,.68,1.16,1.16,2.71,.49,1.55,.75,2.85,.59,2.89-.16,.04-.68-1.17-1.16-2.71-.48-1.54-.75-2.84-.59-2.89Z"/>
    <path class="cls-10" d="M315.15,226.37c.15-.07,.81,1.07,1.48,2.55,.67,1.48,1.08,2.74,.93,2.8-.15,.06-.82-1.08-1.48-2.55-.66-1.47-1.08-2.73-.93-2.8Z"/>
    <path class="cls-10" d="M309.33,216.19c.14-.09,.97,.94,1.84,2.32,.83,1.4,1.39,2.6,1.25,2.68-.14,.08-.93-.98-1.76-2.37-.87-1.36-1.47-2.54-1.33-2.63Z"/>
    <path class="cls-10" d="M302.14,206.91c.12-.11,1.07,.81,2.11,2.06,1.04,1.25,1.78,2.35,1.65,2.45s-1.08-.82-2.11-2.06c-1.03-1.24-1.77-2.33-1.65-2.45Z"/>
    <path class="cls-10" d="M293.71,198.75c.11-.13,1.17,.65,2.38,1.74,1.21,1.09,2.09,2.07,1.98,2.19-.12,.12-1.18-.66-2.38-1.74-1.2-1.08-2.08-2.06-1.98-2.19Z"/>
    <path class="cls-10" d="M284.19,191.89c.09-.14,1.25,.47,2.61,1.38,1.36,.9,2.37,1.74,2.28,1.88-.1,.13-1.27-.48-2.61-1.38-1.34-.89-2.36-1.73-2.28-1.88Z"/>
    <path class="cls-10" d="M273.74,186.56c.06-.15,1.31,.27,2.79,.96,1.48,.68,2.62,1.35,2.54,1.5-.08,.15-1.33-.28-2.79-.96-1.47-.68-2.6-1.35-2.54-1.5Z"/>
    <path class="cls-10" d="M262.56,183.03c.03-.16,1.34,.05,2.91,.47,1.57,.42,2.81,.9,2.76,1.05-.05,.16-1.35-.05-2.91-.47-1.56-.42-2.79-.89-2.76-1.05Z"/>
    <path class="cls-10" d="M250.93,181.54c0-.16,1.33-.23,2.95-.13,1.62,.17,2.92,.44,2.89,.6-.02,.16-1.34,.16-2.94,0-1.61-.1-2.91-.3-2.91-.47Z"/>
    <path class="cls-10" d="M239.23,182.34c-.03-.16,1.26-.45,2.88-.64,1.62-.19,2.94-.21,2.95-.05,.01,.17-1.28,.45-2.88,.64-1.6,.19-2.92,.21-2.95,.05Z"/>
    <path class="cls-10" d="M227.9,185.36c-.06-.16,1.15-.68,2.71-1.17,1.55-.49,2.85-.76,2.89-.6,.04,.16-1.17,.69-2.71,1.17-1.54,.49-2.83,.76-2.89,.6Z"/>
    <path class="cls-10" d="M217.33,190.45c-.09-.14,1-.89,2.44-1.66,1.43-.78,2.65-1.28,2.72-1.13,.07,.15-1.02,.89-2.44,1.66-1.42,.77-2.64,1.27-2.72,1.13Z"/>
    <path class="cls-10" d="M207.96,197.49c-.11-.12,.81-1.07,2.06-2.11,1.25-1.04,2.35-1.78,2.45-1.65,.1,.13-.82,1.08-2.06,2.11-1.24,1.03-2.33,1.77-2.45,1.65Z"/>
    <path class="cls-10" d="M200.29,206.35c-.14-.09,.49-1.27,1.49-2.56,1-1.29,1.98-2.19,2.1-2.09,.13,.11-.64,1.18-1.62,2.45-.99,1.27-1.83,2.28-1.97,2.19Z"/>
    <path class="cls-10" d="M196.01,213.97c-.15-.07,0-.71,.36-1.43,.35-.72,.75-1.24,.9-1.17,.15,.08-.01,.72-.36,1.43-.35,.71-.75,1.23-.9,1.17Z"/>
  </g>
  <g>
    <path class="cls-10" d="M195.13,215.67c-.14-.09,.05-.72,.43-1.41,.38-.69,.81-1.19,.96-1.12,.15,.07-.04,.7-.43,1.41-.39,.71-.82,1.21-.96,1.12Z"/>
    <path class="cls-10" d="M187.4,224.19c-.1-.14,.85-1.01,2.02-2.07,1.17-1.06,2.12-1.94,2.24-1.82,.12,.11-.64,1.18-1.84,2.27-1.19,1.09-2.33,1.76-2.42,1.63Z"/>
    <path class="cls-10" d="M177.22,229.59c-.05-.16,1.12-.7,2.57-1.33,1.45-.63,2.65-1.12,2.73-.97,.08,.14-1.01,.88-2.49,1.52-1.48,.64-2.76,.93-2.81,.78Z"/>
    <path class="cls-10" d="M165.95,232.06c-.02-.17,1.25-.42,2.82-.67,1.57-.24,2.85-.4,2.89-.23,.04,.16-1.21,.58-2.8,.83-1.59,.25-2.9,.24-2.91,.08Z"/>
    <path class="cls-10" d="M154.4,232.11c.02-.17,1.31-.24,2.9-.17,1.59,.07,2.87,.26,2.87,.43,0,.17-1.3,.24-2.9,.17-1.6-.07-2.89-.26-2.87-.43Z"/>
    <path class="cls-10" d="M143.03,230.07c.04-.16,1.34,0,2.89,.34,1.55,.35,2.78,.76,2.76,.93-.03,.16-1.32,.01-2.89-.34-1.57-.35-2.8-.77-2.76-.93Z"/>
    <path class="cls-10" d="M132.11,226.29c.07-.15,1.32,.19,2.81,.76,1.48,.57,2.64,1.16,2.59,1.32-.05,.16-1.31-.18-2.81-.76-1.5-.57-2.66-1.17-2.59-1.32Z"/>
    <path class="cls-10" d="M121.7,221.27c.08-.15,1.29,.32,2.71,1.05,1.42,.73,2.51,1.44,2.44,1.59-.07,.15-1.28-.32-2.71-1.05-1.42-.73-2.52-1.44-2.44-1.59Z"/>
    <path class="cls-10" d="M111.7,215.45c.09-.14,1.27,.41,2.63,1.24,1.37,.82,2.4,1.61,2.32,1.75-.08,.14-1.26-.41-2.63-1.24-1.37-.83-2.41-1.61-2.32-1.75Z"/>
    <path class="cls-10" d="M104.39,210.77c.09-.14,.71,.1,1.37,.53,.67,.43,1.14,.9,1.05,1.04-.09,.14-.7-.1-1.37-.53-.67-.43-1.14-.9-1.05-1.04Z"/>
  </g>
  <g class="cls-6">
    <g>
      <g>
        <rect class="cls-4" x="13.02" y="142.97" width="95.04" height="63.73" transform="translate(-8.16 3.04) rotate(-2.7)"/>
        <path d="M106.02,141.29l2.95,62.66-93.93,4.43-2.95-62.66,93.93-4.43m.95-1.05l-95.93,4.52,3.05,64.66,95.93-4.52-3.05-64.66h0Z"/>
      </g>
      <path class="cls-10" d="M14.06,209.45v-.03s-3.05-64.69-3.05-64.69h.03s95.96-4.52,95.96-4.52v.03s3.05,64.69,3.05,64.69h-.03s-95.96,4.52-95.96,4.52Zm-2.99-64.66l3.04,64.6,95.87-4.52-3.04-64.6-95.87,4.52Z"/>
    </g>
    <path class="cls-10" d="M107.32,141s-.27,.33-.85,.9c-.65,.62-1.5,1.44-2.56,2.47-2.32,2.18-5.56,5.22-9.54,8.96-8.17,7.57-19.36,17.92-31.76,29.39l-.26,.24-.29-.21c-.22-.16-.46-.33-.7-.51-13.81-10.06-26.31-19.17-35.45-25.82-4.45-3.3-8.08-5.98-10.68-7.91-1.2-.91-2.15-1.63-2.88-2.19-.65-.51-.99-.79-.97-.81s.39,.21,1.07,.67c.75,.52,1.74,1.2,2.97,2.05,2.64,1.87,6.32,4.48,10.85,7.68,9.18,6.6,21.73,15.64,35.6,25.62,.24,.17,.48,.35,.7,.51l-.55,.03c12.46-11.4,23.71-21.68,31.93-29.2,4.05-3.65,7.36-6.63,9.72-8.76,1.11-.97,2-1.75,2.67-2.35,.62-.53,.95-.8,.97-.77Z"/>
    <path class="cls-10" d="M14.44,210.19c-.19-.15,6.6-9.35,15.18-20.55,8.58-11.21,15.68-20.17,15.87-20.03,.19,.15-6.6,9.35-15.18,20.56-8.57,11.2-15.68,20.17-15.87,20.02Z"/>
    <path class="cls-10" d="M77.33,167.3c.18-.16,7.73,8.31,16.85,18.9,9.12,10.6,16.37,19.31,16.19,19.47-.18,.16-7.72-8.3-16.85-18.9-9.12-10.59-16.37-19.31-16.18-19.47Z"/>
  </g>
  <g class="cls-3">
    <g>
      <g>
        <polygon class="cls-4" points="273.28 412.03 274.29 304.53 436.94 303.01 441.69 413.24 273.28 412.03"/>
        <path d="M436.46,303.52l4.71,109.22-167.38-1.2,1-106.5,161.68-1.51m.96-1.01l-163.62,1.53-1.02,108.49,169.43,1.22-4.79-111.24h0Z"/>
      </g>
      <path class="cls-5" d="M273.8,304.04l77.31-62.82c3.27-2.66,7.97-2.66,11.23,.01l75.08,61.28"/>
      <g class="cls-8">
        <path d="M273.8,304.04l77.31-62.82c3.27-2.66,7.97-2.66,11.23,.01l75.08,61.28"/>
      </g>
      <path class="cls-10" d="M272.78,412.53c-.2-.19,12.87-14.52,29.19-32,16.33-17.49,29.73-31.5,29.93-31.31,.2,.19-12.86,14.52-29.19,32.01-16.32,17.48-29.72,31.5-29.93,31.31Z"/>
      <path class="cls-10" d="M442.21,413.74c-.21,.19-12.99-13.8-28.56-31.24-15.57-17.44-28.01-31.73-27.8-31.91,.21-.19,12.99,13.8,28.56,31.24,15.56,17.44,28.01,31.72,27.8,31.91Z"/>
      <g class="cls-2">
        <polyline points="437.42 302.51 355.39 368.32 273.8 304.04"/>
      </g>
      <g>
        <polygon class="cls-1" points="282.05 310.1 281.69 258.99 424.96 257 426.69 310.77 355.38 367.46 282.05 310.1"/>
        <path class="cls-10" d="M282.05,310.1s.47,.34,1.36,1.02c.89,.69,2.2,1.7,3.91,3.01,3.42,2.66,8.43,6.55,14.83,11.52,12.79,9.97,31.13,24.27,53.39,41.62h-.31c20.54-16.35,44.91-35.74,71.27-56.73l-.11,.24c-.33-10.26-.68-21.02-1.03-31.97-.24-7.37-.47-14.66-.7-21.8l.3,.29c-57.73,.76-108.66,1.43-143.27,1.89l.19-.19c.07,16.07,.13,28.83,.17,37.59,0,4.37,.02,7.74,.02,10.04,0,1.13,0,2,0,2.59,0,.58-.02,.89-.02,.89,0,0-.02-.29-.03-.86,0-.59-.02-1.45-.04-2.57-.03-2.29-.07-5.65-.12-10.01-.08-8.78-.21-21.56-.36-37.65v-.19s.19,0,.19,0c34.61-.51,85.54-1.25,143.27-2.1h.29s0,.29,0,.29c.23,7.14,.46,14.43,.7,21.8,.35,10.95,.69,21.71,1.02,31.97v.15s-.11,.09-.11,.09c-26.39,20.96-50.78,40.32-71.34,56.65l-.15,.12-.15-.12c-22.23-17.45-40.55-31.83-53.32-41.85-6.35-5.01-11.33-8.92-14.72-11.6-1.68-1.33-2.96-2.35-3.84-3.05-.86-.69-1.29-1.05-1.29-1.05Z"/>
      </g>
    </g>
    <path class="cls-10" d="M402.37,282.78c0,.17-21.91,.48-48.93,.7-27.03,.22-48.94,.26-48.94,.1,0-.17,21.9-.48,48.94-.7,27.02-.22,48.94-.26,48.94-.1Z"/>
    <path class="cls-10" d="M402.4,297.22c0,.17-21.91,.48-48.93,.7-27.03,.22-48.94,.26-48.94,.1,0-.17,21.9-.48,48.94-.7,27.02-.22,48.94-.26,48.94-.1Z"/>
    <path class="cls-10" d="M402.43,313.85c0,.17-21.91,.48-48.93,.7-27.03,.22-48.94,.26-48.94,.1,0-.17,21.9-.48,48.94-.7,27.02-.22,48.94-.26,48.94-.1Z"/>
    <path class="cls-10" d="M402.47,330.49c0,.17-20.9,.47-46.68,.68-25.79,.21-46.69,.25-46.69,.08,0-.17,20.9-.47,46.69-.68,25.78-.21,46.69-.25,46.69-.08Z"/>
    <path class="cls-10" d="M384.17,345.13s-.2,.04-.57,.07c-.45,.02-.99,.04-1.65,.07-1.52,.04-3.57,.09-6.05,.15-5.2,.09-12.21,.22-19.97,.36-7.8,.15-14.87,.19-19.98,.19-2.49-.02-4.53-.03-6.05-.04-.66-.02-1.2-.03-1.65-.04-.38-.02-.57-.03-.57-.06,0-.02,.2-.04,.57-.07,.45-.02,.99-.04,1.65-.07,1.52-.04,3.57-.09,6.05-.15,5.2-.09,12.21-.22,19.97-.36,7.8-.15,14.86-.19,19.97-.19,2.49,.02,4.53,.03,6.05,.04,.66,.02,1.2,.03,1.65,.04,.38,.02,.57,.03,.57,.06Z"/>
    <path class="cls-10" d="M365.76,359.21c0,.17-4.67,.31-10.43,.32-5.76,.01-10.43-.11-10.44-.28,0-.17,4.67-.31,10.43-.32,5.76-.01,10.43,.11,10.43,.28Z"/>
  </g>
</svg>