<?xml version="1.0" encoding="UTF-8"?>
<svg id="Layer_1" data-name="Layer 1" xmlns="http://www.w3.org/2000/svg" viewBox="0 0 700 700">
  <path d="M672.19,338.65c-41.76-72.84-91.35-129.46-147.42-168.39-27.35-18.96-56.07-33.46-85.43-43.21-29.27-9.66-59.35-14.59-89.35-14.59s-59.99,4.92-89.35,14.59c-29.35,9.66-58.08,24.25-85.43,43.21-56.07,38.93-105.67,95.54-147.42,168.39-4.01,7.02-4.01,15.68,0,22.7,41.76,72.84,91.35,129.46,147.42,168.39,27.35,18.96,56.07,33.46,85.43,43.21,29.27,9.66,59.35,14.59,89.35,14.59s59.99-4.92,89.35-14.59c29.35-9.66,58.08-24.25,85.43-43.21,56.07-38.93,105.67-95.54,147.42-168.39,4.01-7.11,4.01-15.68,0-22.7Zm-322.09,203.22c-103.93,0-201.56-68.01-275.87-191.91,74.3-123.89,171.94-191.91,275.87-191.91s201.56,68.02,275.87,191.91c-74.3,123.89-171.94,191.91-275.87,191.91Zm0-325.01c-73.39,0-133.1,59.72-133.1,133.1s59.72,133.1,133.1,133.1,133.1-59.72,133.1-133.1-59.71-133.1-133.1-133.1Zm0,220.62c-48.23,0-87.52-39.29-87.52-87.52s39.29-87.52,87.52-87.52,87.52,39.29,87.52,87.52-39.29,87.52-87.52,87.52Z"/>
</svg>