<?xml version="1.0" encoding="UTF-8"?>
<svg id="Layer_1" data-name="Layer 1" xmlns="http://www.w3.org/2000/svg" xmlns:xlink="http://www.w3.org/1999/xlink" viewBox="0 0 100 100">
  <defs>
    <style>
      .cls-1 {
        fill: #fff;
      }

      .cls-2 {
        fill: url(#linear-gradient);
      }
    </style>
    <linearGradient id="linear-gradient" x1="38.9" y1="-25.18" x2="57.69" y2="101.98" gradientUnits="userSpaceOnUse">
      <stop offset="0" stop-color="#0e3189"/>
      <stop offset=".94" stop-color="#001042"/>
    </linearGradient>
  </defs>
  <path class="cls-2" d="M95,49.95c0,23.57-18.11,42.98-41.11,44.82-1.27,.23-2.56,.23-3.83,.23-3.37,0-6.63-.34-9.75-1.05C20.1,89.42,5,71.42,5,49.95,5,25.09,25.22,5,50.06,5s44.94,20.09,44.94,44.95Z"/>
  <path class="cls-1" d="M55.17,40.55c.69-.82,2.09-1.41,4.07-1.41,1.85,0,4.06,.25,6.15,.84l1.75-9.44c-3.6-1.28-7.31-1.64-11.15-1.64s-6.86,.59-9.29,1.99c-2.44,1.38-4.07,2.92-4.99,5.12-.93,1.97-1.39,5.33-1.39,9.5v3.73h-7.45v10.8h7.45v33.89c3.13,.71,6.39,1.05,9.75,1.05,1.27,0,2.56,0,3.83-.23V60.06h9.87v-10.8h-9.87v-3.5c0-2.66,.36-4.28,1.28-5.2Z"/>
</svg>