<?xml version="1.0" encoding="UTF-8"?>
<svg id="Layer_1" data-name="Layer 1" xmlns="http://www.w3.org/2000/svg" viewBox="0 0 250 250">
  <defs>
    <style>
      .cls-1 {
        fill: #fff;
      }
    </style>
  </defs>
  <path class="cls-1" d="M143.78,47.27c2.51-2.97,7.58-5.1,14.78-5.1,6.7,0,14.74,.91,22.32,3.05l6.36-34.28c-13.06-4.65-26.54-5.94-40.48-5.94s-24.91,2.13-33.74,7.24c-8.87,5.03-14.78,10.59-18.13,18.59-3.39,7.16-5.07,19.35-5.07,34.5v13.56h-27.04v39.23h27.04v123.09c11.35,2.59,23.19,3.81,35.42,3.81,4.61,0,9.29,0,13.9-.84V118.11h35.84v-39.23h-35.84v-12.72c0-9.67,1.29-15.54,4.65-18.89Z"/>
</svg>