<?xml version="1.0" encoding="UTF-8"?>
<svg id="Layer_1" data-name="Layer 1" xmlns="http://www.w3.org/2000/svg" viewBox="0 0 250 250">
  <defs>
    <style>
      .cls-1 {
        fill: #fcfcfc;
        fill-rule: evenodd;
      }
    </style>
  </defs>
  <path class="cls-1" d="M213.26,5H36.85C15.85,5,5,16.08,5,37.11V213.51c0,20.3,11.17,31.49,30.81,31.49H213.26c20.48,0,31.74-11.19,31.74-31.8V36.49c0-20.41-11.27-31.49-31.74-31.49Zm-19.44,27.14q23.78,0,23.78,23.82,0,23.31-23.37,23.31-23.57,0-23.57-23.62t23.16-23.51Zm-68.66,46.3c25.02,0,46.53,21.54,46.11,46.51-.2,25.69-21.51,46.92-46.94,46.4-25.23-.52-46.54-21.86-45.91-46.92,.61-25.17,21.71-45.99,46.74-45.99Zm92.44,124.92c-.2,11.19-3.1,14.4-14.26,14.4H46.57c-10.96,0-14.06-3.21-14.06-14.4,0-28.9,.11-58.32-.41-87.53,0-8.18,2.28-10.15,9.92-9.84,10.96,.83,11.17,.41,9.93,11.08-4.25,37.08,21.4,73.13,57.9,80.28,37.64,7.25,75.28-15.43,85.62-51.48,3.1-11.29,4.03-23.31,1.66-34.49-.83-4.25,.2-4.97,3.93-4.97,16.54-1.24,16.54-1.55,16.54,15.54v81.42Z"/>
</svg>