<?xml version="1.0" encoding="UTF-8"?>
<svg id="Layer_1" data-name="Layer 1" xmlns="http://www.w3.org/2000/svg" viewBox="0 0 700 700">
  <path d="M24.8,347.73C24.8,168.83,171.1,23.29,350,23.29s325.2,145.54,325.2,324.44-145.54,325.2-325.2,325.2c-36.38,0-72.77-6.07-108.4-18.95l-150.09,22.74h-3.03c-5.31,0-10.61-2.27-14.4-6.07-4.55-4.55-6.07-11.37-4.55-17.43l25.77-103.09c-20.47-25.77-37.15-54.58-49.27-84.14-13.65-37.9-21.23-77.32-21.23-118.25h0Zm57.61,104.61c11.37,29.56,28.05,56.85,49.27,81.11,3.79,4.55,5.31,10.61,3.79,16.68l-21.23,84.9,126.59-18.95h3.03c2.27,0,4.55,.76,6.82,1.52,31.84,12.13,65.95,18.19,99.3,18.19,158.43,0,287.3-128.86,287.3-287.3S508.42,61.19,349.99,61.19,62.7,190.06,62.7,348.49c0,35.62,6.83,70.49,19.71,103.84h0Z"/>
</svg>