<?xml version="1.0" encoding="UTF-8"?>
<svg id="Layer_1" data-name="Layer 1" xmlns="http://www.w3.org/2000/svg" viewBox="0 0 250 250">
  <defs>
    <style>
      .cls-1 {
        fill: #fff;
      }

      .cls-2 {
        fill: #fcfcfc;
        fill-rule: evenodd;
      }
    </style>
  </defs>
  <path class="cls-1" d="M227.54,245H22.46c-9.62,0-17.46-7.82-17.46-17.44V22.46C5,12.83,12.83,5,22.46,5H227.54c9.63,0,17.46,7.83,17.46,17.46V227.56c0,9.62-7.83,17.44-17.46,17.44ZM22.46,16.65c-3.22,0-5.83,2.64-5.83,5.81V227.56c0,3.24,2.61,5.84,5.83,5.84H227.54c3.2,0,5.82-2.6,5.82-5.84V22.46c0-3.17-2.61-5.81-5.82-5.81H22.46Z"/>
  <path class="cls-2" d="M57.51,164.72c10.18,.75,20.05-.75,29.38-5.01,4.2-1.74,8.03-4.05,11.81-6.98-4.45-.23-8.44-1.22-12.12-3.13-6.35-3.28-10.81-8.32-13.54-14.94q-.63-1.64,1.15-1.47c4.42,.41,7.68,.31,10.35-.73-2.47-.8-4.73-1.4-6.79-2.52-9.39-5.24-14.37-13.24-15.21-24.04-.11-1.32,.21-1.42,1.37-.82,3.36,1.76,6.92,2.62,11.13,2.86-1.84-1.5-3.41-2.83-4.83-4.31-7.77-8.27-9.66-21.78-4.41-31.96,.7-1.36,.99-1.36,2.01-.15,13.07,15.07,29.38,24.25,49.11,27.41,2.1,.32,4.2,.43,6.35,.74,1.33,.27,1.51-.41,1.33-1.52-2.11-11.76,3.45-23.51,14.02-29.44,10.62-6.2,24.56-4.37,33.3,4.14,.91,.88,1.79,1.1,3.03,.73,5.19-1.26,10.19-3.15,14.92-5.83,.32-.15,.64-.3,1.15-.68-2.08,6.61-6.05,11.55-11.92,15.53,5.55-.53,10.37-2.14,15.2-3.98,.11,.73-.38,1.16-.63,1.57-3.33,4.57-7.25,8.55-11.71,11.99-.88,.62-1.15,1.25-1.15,2.3,.34,20.74-6.25,39.14-19.55,55.14-12.3,14.65-28.11,23.44-47,26.43-19.99,3.06-38.84-.38-56.1-10.9-.26-.23-.42-.3-.63-.39Z"/>
</svg>