<?xml version="1.0" encoding="UTF-8"?>
<svg id="Layer_1" data-name="Layer 1" xmlns="http://www.w3.org/2000/svg" xmlns:xlink="http://www.w3.org/1999/xlink" viewBox="0 0 100 100">
  <defs>
    <style>
      .cls-1 {
        fill: #fff;
        fill-rule: evenodd;
      }

      .cls-2 {
        fill: url(#linear-gradient);
      }
    </style>
    <linearGradient id="linear-gradient" x1="50" y1="-44.44" x2="50" y2="103.56" gradientUnits="userSpaceOnUse">
      <stop offset=".32" stop-color="#20a9e5"/>
      <stop offset=".67" stop-color="#1686c3"/>
    </linearGradient>
  </defs>
  <path class="cls-2" d="M95,50c0,24.83-20.16,45-44.99,45S5,74.83,5,50,25.14,5,50.01,5s44.99,20.13,44.99,45Z"/>
  <path class="cls-1" d="M22.76,68.31c4.28,.27,8.43-.36,12.33-2.12,1.76-.75,3.35-1.72,4.95-2.96-1.87-.06-3.57-.5-5.12-1.28-2.64-1.34-4.51-3.46-5.64-6.31q-.25-.63,.44-.59c1.89,.19,3.27,.15,4.34-.29-1.03-.36-1.99-.52-2.79-1.07-3.94-2.18-6.04-5.56-6.4-10.07-.04-.52,.11-.59,.59-.36,1.39,.75,2.9,1.09,4.63,1.28-.75-.69-1.4-1.24-1.99-1.82-3.27-3.52-4.05-9.12-1.87-13.42,.29-.57,.4-.57,.8-.1,5.52,6.33,12.37,10.19,20.64,11.51,.84,.15,1.76,.17,2.62,.34,.59,.08,.65-.19,.56-.63-.86-4.97,1.47-9.9,5.87-12.37,4.49-2.62,10.32-1.78,13.93,1.74,.42,.36,.82,.44,1.3,.31,2.22-.5,4.3-1.34,6.25-2.43,.17-.04,.29-.17,.5-.31-.84,2.79-2.52,4.84-4.99,6.52,2.29-.23,4.34-.88,6.38-1.68,.04,.29-.17,.46-.29,.67-1.39,1.91-3,3.61-4.91,5.01-.36,.29-.44,.52-.44,.99,.15,8.66-2.62,16.38-8.16,23.09-5.2,6.1-11.85,9.79-19.76,11.07-8.39,1.32-16.28-.11-23.53-4.57-.08-.06-.19-.15-.25-.15Z"/>
</svg>